<svg height="512" viewBox="0 0 64 64" width="512" xmlns="http://www.w3.org/2000/svg"><g id="Icons"><g><g><path d="m34 40c0-7.72 6.28-14 14-14 5.096 0 9.551 2.745 12 6.826v-16.826c0-2.209-1.791-4-4-4h-48c-2.209 0-4 1.791-4 4v32c0 2.209 1.791 4 4 4h32.817c-4.079-2.448-6.817-6.907-6.817-12z" fill="#3cc8b4"/></g><g><path d="m8 48v-32c0-2.209 1.791-4 4-4h-4c-2.209 0-4 1.791-4 4v32c0 2.209 1.791 4 4 4h4c-2.209 0-4-1.791-4-4z" fill="#1eaa96"/></g><g><path d="m4 18h56v6h-56z" fill="#fab400"/></g><g><path d="m4 18h4v6h-4z" fill="#dc9600"/></g><g><path d="m48 50c-5.523 0-10-4.477-10-10 0-5.523 4.477-10 10-10 5.523 0 10 4.477 10 10 0 5.523-4.477 10-10 10z" fill="#f0f0f0"/></g><g><path d="m48 60c-1.105 0-2-.895-2-2v-8h4v8c0 1.105-.895 2-2 2z" fill="#505050"/></g><g><path d="m48 58v-8h-2v8c0 1.105.895 2 2 2 .366 0 .705-.106 1-.277-.595-.347-1-.985-1-1.723z" fill="#3c3c3c"/></g><g><path d="m34 40c0-1.39.21-2.731.59-4h-22.59v8h22.595c-.38-1.269-.595-2.609-.595-4z" fill="#f0f0f0"/></g><g><path d="m48 28c-6.627 0-12 5.373-12 12s5.373 12 12 12 12-5.373 12-12-5.373-12-12-12zm0 22c-5.514 0-10-4.486-10-10s4.486-10 10-10 10 4.486 10 10-4.486 10-10 10z" fill="#505050"/></g><g><path d="m38 40c0-6.29 4.842-11.45 11-11.959-.331-.027-.662-.041-1-.041-6.627 0-12 5.373-12 12s5.373 12 12 12c.338 0 .669-.014 1-.041-6.158-.509-11-5.669-11-11.959z" fill="#3c3c3c"/></g><g><path d="m46 54h4v2h-4z" fill="#fab400"/></g><g><path d="m46 54h2v2h-2z" fill="#dc9600"/></g><g><path d="m39.172 39.5h5.657v1h-5.657z" fill="#fa6450" transform="matrix(.707 -.707 .707 .707 -15.983 41.414)"/></g><g><path d="m41.5 37.172h1v5.657h-1z" fill="#fa6450" transform="matrix(.707 -.707 .707 .707 -15.983 41.414)"/></g><g><path d="m45.172 39.5h5.657v1h-5.657z" fill="#fa6450" transform="matrix(.707 -.707 .707 .707 -14.225 45.657)"/></g><g><path d="m47.5 37.172h1v5.657h-1z" fill="#fa6450" transform="matrix(.707 -.707 .707 .707 -14.225 45.657)"/></g><g><path d="m51.172 39.5h5.657v1h-5.657z" fill="#fa6450" transform="matrix(.707 -.707 .707 .707 -12.468 49.9)"/></g><g><path d="m53.5 37.172h1v5.657h-1z" fill="#fa6450" transform="matrix(.707 -.707 .707 .707 -12.468 49.9)"/></g><g><path d="m12 30h6v2h-6z" fill="#008c78"/></g><g><path d="m20 30h6v2h-6z" fill="#008c78"/></g><g><path d="m28 30h6v2h-6z" fill="#008c78"/></g></g></g></svg>